<?xml version="1.0" encoding="UTF-8" standalone="no"?>
<!DOCTYPE svg PUBLIC "-//W3C//DTD SVG 1.1//EN"
 "http://www.w3.org/Graphics/SVG/1.1/DTD/svg11.dtd">
<!-- Generated by graphviz version 2.47.2 (20210527.0053)
 -->
<!-- Title: dependency&#45;cruiser output Pages: 1 -->
<svg width="625pt" height="548pt"
 viewBox="0.00 0.00 624.50 548.00" xmlns="http://www.w3.org/2000/svg" xmlns:xlink="http://www.w3.org/1999/xlink">
<g id="graph0" class="graph" transform="scale(1 1) rotate(0) translate(4 544)">
<title>dependency&#45;cruiser output</title>
<polygon fill="white" stroke="transparent" points="-4,4 -4,-544 620.5,-544 620.5,4 -4,4"/>
<g id="clust1" class="cluster">
<title>cluster_src</title>
<path fill="#ffffff" stroke="black" stroke-width="2" d="M20,-26C20,-26 596.5,-26 596.5,-26 602.5,-26 608.5,-32 608.5,-38 608.5,-38 608.5,-520 608.5,-520 608.5,-526 602.5,-532 596.5,-532 596.5,-532 20,-532 20,-532 14,-532 8,-526 8,-520 8,-520 8,-38 8,-38 8,-32 14,-26 20,-26"/>
<text text-anchor="middle" x="308.25" y="-520.8" font-family="Helvetica,sans-Serif" font-weight="bold" font-size="9.00">src</text>
</g>
<g id="clust2" class="cluster">
<title>cluster_src/Id</title>
<path fill="#ffffff" stroke="black" stroke-width="2" d="M538,-349C538,-349 584,-349 584,-349 590,-349 596,-355 596,-361 596,-361 596,-389 596,-389 596,-395 590,-401 584,-401 584,-401 538,-401 538,-401 532,-401 526,-395 526,-389 526,-389 526,-361 526,-361 526,-355 532,-349 538,-349"/>
<text text-anchor="middle" x="561" y="-389.8" font-family="Helvetica,sans-Serif" font-weight="bold" font-size="9.00">Id</text>
</g>
<g id="clust3" class="cluster">
<title>cluster_src/comment</title>
<path fill="#ffffff" stroke="black" stroke-width="2" d="M442.5,-229C442.5,-229 588.5,-229 588.5,-229 594.5,-229 600.5,-235 600.5,-241 600.5,-241 600.5,-299 600.5,-299 600.5,-305 594.5,-311 588.5,-311 588.5,-311 442.5,-311 442.5,-311 436.5,-311 430.5,-305 430.5,-299 430.5,-299 430.5,-241 430.5,-241 430.5,-235 436.5,-229 442.5,-229"/>
<text text-anchor="middle" x="515.5" y="-299.8" font-family="Helvetica,sans-Serif" font-weight="bold" font-size="9.00">comment</text>
</g>
<g id="clust4" class="cluster">
<title>cluster_src/controllers</title>
<path fill="#ffffff" stroke="black" stroke-width="2" d="M108,-34C108,-34 281,-34 281,-34 287,-34 293,-40 293,-46 293,-46 293,-194 293,-194 293,-200 287,-206 281,-206 281,-206 108,-206 108,-206 102,-206 96,-200 96,-194 96,-194 96,-46 96,-46 96,-40 102,-34 108,-34"/>
<text text-anchor="middle" x="194.5" y="-194.8" font-family="Helvetica,sans-Serif" font-weight="bold" font-size="9.00">controllers</text>
</g>
<g id="clust5" class="cluster">
<title>cluster_src/data&#45;access</title>
<path fill="#ffffff" stroke="black" stroke-width="2" d="M330,-394C330,-394 502,-394 502,-394 508,-394 514,-400 514,-406 514,-406 514,-434 514,-434 514,-440 508,-446 502,-446 502,-446 330,-446 330,-446 324,-446 318,-440 318,-434 318,-434 318,-406 318,-406 318,-400 324,-394 330,-394"/>
<text text-anchor="middle" x="416" y="-434.8" font-family="Helvetica,sans-Serif" font-weight="bold" font-size="9.00">data&#45;access</text>
</g>
<g id="clust6" class="cluster">
<title>cluster_src/express&#45;callback</title>
<path fill="#ffffff" stroke="black" stroke-width="2" d="M98,-214C98,-214 165,-214 165,-214 171,-214 177,-220 177,-226 177,-226 177,-254 177,-254 177,-260 171,-266 165,-266 165,-266 98,-266 98,-266 92,-266 86,-260 86,-254 86,-254 86,-226 86,-226 86,-220 92,-214 98,-214"/>
<text text-anchor="middle" x="131.5" y="-254.8" font-family="Helvetica,sans-Serif" font-weight="bold" font-size="9.00">express&#45;callback</text>
</g>
<g id="clust7" class="cluster">
<title>cluster_src/is&#45;questionable</title>
<path fill="#ffffff" stroke="black" stroke-width="2" d="M330,-454C330,-454 506,-454 506,-454 512,-454 518,-460 518,-466 518,-466 518,-494 518,-494 518,-500 512,-506 506,-506 506,-506 330,-506 330,-506 324,-506 318,-500 318,-494 318,-494 318,-466 318,-466 318,-460 324,-454 330,-454"/>
<text text-anchor="middle" x="418" y="-494.8" font-family="Helvetica,sans-Serif" font-weight="bold" font-size="9.00">is&#45;questionable</text>
</g>
<g id="clust8" class="cluster">
<title>cluster_src/use&#45;cases</title>
<path fill="#ffffff" stroke="black" stroke-width="2" d="M216,-214C216,-214 401,-214 401,-214 407,-214 413,-220 413,-226 413,-226 413,-374 413,-374 413,-380 407,-386 401,-386 401,-386 216,-386 216,-386 210,-386 204,-380 204,-374 204,-374 204,-226 204,-226 204,-220 210,-214 216,-214"/>
<text text-anchor="middle" x="308.5" y="-374.8" font-family="Helvetica,sans-Serif" font-weight="bold" font-size="9.00">use&#45;cases</text>
</g>
<!-- crypto -->
<g id="node1" class="node">
<title>crypto</title>
<path fill="#ffffcc" stroke="grey" d="M582,-18C582,-18 540,-18 540,-18 537,-18 534,-15 534,-12 534,-12 534,-6 534,-6 534,-3 537,0 540,0 540,0 582,0 582,0 585,0 588,-3 588,-6 588,-6 588,-12 588,-12 588,-15 585,-18 582,-18"/>
<text text-anchor="middle" x="561" y="-6.8" font-family="Helvetica,sans-Serif" font-size="9.00" fill="grey">crypto</text>
</g>
<!-- querystring -->
<g id="node2" class="node">
<title>querystring</title>
<path fill="#ffffcc" stroke="grey" d="M490.5,-18C490.5,-18 440.5,-18 440.5,-18 437.5,-18 434.5,-15 434.5,-12 434.5,-12 434.5,-6 434.5,-6 434.5,-3 437.5,0 440.5,0 440.5,0 490.5,0 490.5,0 493.5,0 496.5,-3 496.5,-6 496.5,-6 496.5,-12 496.5,-12 496.5,-15 493.5,-18 490.5,-18"/>
<text text-anchor="middle" x="465.5" y="-6.8" font-family="Helvetica,sans-Serif" font-size="9.00" fill="grey">querystring</text>
</g>
<!-- src/Id/index.js -->
<g id="node3" class="node">
<title>src/Id/index.js</title>
<g id="a_node3"><a xlink:href="src/Id/index.js" xlink:title="index.js">
<path fill="#ffffcc" stroke="black" d="M582,-375C582,-375 540,-375 540,-375 537,-375 534,-372 534,-369 534,-369 534,-363 534,-363 534,-360 537,-357 540,-357 540,-357 582,-357 582,-357 585,-357 588,-360 588,-363 588,-363 588,-369 588,-369 588,-372 585,-375 582,-375"/>
<text text-anchor="middle" x="561" y="-363.8" font-family="Helvetica,sans-Serif" font-size="9.00">index.js</text>
</a>
</g>
</g>
<!-- src/comment/comment.js -->
<g id="node4" class="node">
<title>src/comment/comment.js</title>
<g id="a_node4"><a xlink:href="src/comment/comment.js" xlink:title="comment.js">
<path fill="#ffffcc" stroke="black" d="M586.5,-255C586.5,-255 535.5,-255 535.5,-255 532.5,-255 529.5,-252 529.5,-249 529.5,-249 529.5,-243 529.5,-243 529.5,-240 532.5,-237 535.5,-237 535.5,-237 586.5,-237 586.5,-237 589.5,-237 592.5,-240 592.5,-243 592.5,-243 592.5,-249 592.5,-249 592.5,-252 589.5,-255 586.5,-255"/>
<text text-anchor="middle" x="561" y="-243.8" font-family="Helvetica,sans-Serif" font-size="9.00">comment.js</text>
</a>
</g>
</g>
<!-- src/comment/index.js -->
<g id="node5" class="node">
<title>src/comment/index.js</title>
<g id="a_node5"><a xlink:href="src/comment/index.js" xlink:title="index.js">
<path fill="#ffffcc" stroke="black" d="M486.5,-270C486.5,-270 444.5,-270 444.5,-270 441.5,-270 438.5,-267 438.5,-264 438.5,-264 438.5,-258 438.5,-258 438.5,-255 441.5,-252 444.5,-252 444.5,-252 486.5,-252 486.5,-252 489.5,-252 492.5,-255 492.5,-258 492.5,-258 492.5,-264 492.5,-264 492.5,-267 489.5,-270 486.5,-270"/>
<text text-anchor="middle" x="465.5" y="-258.8" font-family="Helvetica,sans-Serif" font-size="9.00">index.js</text>
</a>
</g>
</g>
<!-- src/comment/index.js&#45;&gt;crypto -->
<g id="edge4" class="edge">
<title>src/comment/index.js&#45;&gt;crypto</title>
<path fill="none" stroke="#000000" stroke-dasharray="5,2" stroke-opacity="0.200000" d="M469.94,-251.73C484,-213.83 537.21,-70.43 554.52,-23.77"/>
<polygon fill="#000000" fill-opacity="0.200000" stroke="#000000" stroke-opacity="0.200000" points="556.51,-24.44 556.63,-18.09 552.57,-22.98 556.51,-24.44"/>
</g>
<!-- src/comment/index.js&#45;&gt;src/Id/index.js -->
<g id="edge1" class="edge">
<title>src/comment/index.js&#45;&gt;src/Id/index.js</title>
<path fill="none" stroke="#000000" stroke-width="2" stroke-opacity="0.200000" d="M474.8,-270.32C491.33,-288.89 528.47,-330.59 547.79,-352.29"/>
<polygon fill="#000000" fill-opacity="0.200000" stroke="#000000" stroke-width="2" stroke-opacity="0.200000" points="546.3,-353.77 551.85,-356.85 549.43,-350.98 546.3,-353.77"/>
</g>
<!-- src/comment/index.js&#45;&gt;src/comment/comment.js -->
<g id="edge2" class="edge">
<title>src/comment/index.js&#45;&gt;src/comment/comment.js</title>
<path fill="none" stroke="#000000" stroke-width="2" stroke-opacity="0.200000" d="M492.54,-256.82C502.12,-255.29 513.15,-253.52 523.48,-251.86"/>
<polygon fill="#000000" fill-opacity="0.200000" stroke="#000000" stroke-width="2" stroke-opacity="0.200000" points="523.87,-253.92 529.46,-250.9 523.2,-249.78 523.87,-253.92"/>
</g>
<!-- src/comment/source.js -->
<g id="node6" class="node">
<title>src/comment/source.js</title>
<g id="a_node6"><a xlink:href="src/comment/source.js" xlink:title="source.js">
<path fill="#ffffcc" stroke="black" d="M582,-285C582,-285 540,-285 540,-285 537,-285 534,-282 534,-279 534,-279 534,-273 534,-273 534,-270 537,-267 540,-267 540,-267 582,-267 582,-267 585,-267 588,-270 588,-273 588,-273 588,-279 588,-279 588,-282 585,-285 582,-285"/>
<text text-anchor="middle" x="561" y="-273.8" font-family="Helvetica,sans-Serif" font-size="9.00">source.js</text>
</a>
</g>
</g>
<!-- src/comment/index.js&#45;&gt;src/comment/source.js -->
<g id="edge3" class="edge">
<title>src/comment/index.js&#45;&gt;src/comment/source.js</title>
<path fill="none" stroke="#000000" stroke-width="2" stroke-opacity="0.200000" d="M492.54,-265.18C503.4,-266.92 516.11,-268.96 527.56,-270.8"/>
<polygon fill="#000000" fill-opacity="0.200000" stroke="#000000" stroke-width="2" stroke-opacity="0.200000" points="527.51,-272.92 533.77,-271.79 528.18,-268.77 527.51,-272.92"/>
</g>
<!-- src/controllers/delete&#45;comment.js -->
<g id="node7" class="node">
<title>src/controllers/delete&#45;comment.js</title>
<g id="a_node7"><a xlink:href="src/controllers/delete-comment.js" xlink:title="delete&#45;comment.js">
<path fill="#ffffcc" stroke="black" d="M279,-150C279,-150 199,-150 199,-150 196,-150 193,-147 193,-144 193,-144 193,-138 193,-138 193,-135 196,-132 199,-132 199,-132 279,-132 279,-132 282,-132 285,-135 285,-138 285,-138 285,-144 285,-144 285,-147 282,-150 279,-150"/>
<text text-anchor="middle" x="239" y="-138.8" font-family="Helvetica,sans-Serif" font-size="9.00">delete&#45;comment.js</text>
</a>
</g>
</g>
<!-- src/controllers/get&#45;comments.js -->
<g id="node8" class="node">
<title>src/controllers/get&#45;comments.js</title>
<g id="a_node8"><a xlink:href="src/controllers/get-comments.js" xlink:title="get&#45;comments.js">
<path fill="#ffffcc" stroke="black" d="M274.5,-180C274.5,-180 203.5,-180 203.5,-180 200.5,-180 197.5,-177 197.5,-174 197.5,-174 197.5,-168 197.5,-168 197.5,-165 200.5,-162 203.5,-162 203.5,-162 274.5,-162 274.5,-162 277.5,-162 280.5,-165 280.5,-168 280.5,-168 280.5,-174 280.5,-174 280.5,-177 277.5,-180 274.5,-180"/>
<text text-anchor="middle" x="239" y="-168.8" font-family="Helvetica,sans-Serif" font-size="9.00">get&#45;comments.js</text>
</a>
</g>
</g>
<!-- src/controllers/index.js -->
<g id="node9" class="node">
<title>src/controllers/index.js</title>
<g id="a_node9"><a xlink:href="src/controllers/index.js" xlink:title="index.js">
<path fill="#ffffcc" stroke="black" d="M152,-150C152,-150 110,-150 110,-150 107,-150 104,-147 104,-144 104,-144 104,-138 104,-138 104,-135 107,-132 110,-132 110,-132 152,-132 152,-132 155,-132 158,-135 158,-138 158,-138 158,-144 158,-144 158,-147 155,-150 152,-150"/>
<text text-anchor="middle" x="131" y="-138.8" font-family="Helvetica,sans-Serif" font-size="9.00">index.js</text>
</a>
</g>
</g>
<!-- src/controllers/index.js&#45;&gt;src/controllers/delete&#45;comment.js -->
<g id="edge6" class="edge">
<title>src/controllers/index.js&#45;&gt;src/controllers/delete&#45;comment.js</title>
<path fill="none" stroke="#000000" stroke-width="2" stroke-opacity="0.200000" d="M158.2,-141C166.83,-141 176.75,-141 186.6,-141"/>
<polygon fill="#000000" fill-opacity="0.200000" stroke="#000000" stroke-width="2" stroke-opacity="0.200000" points="186.7,-143.1 192.7,-141 186.7,-138.9 186.7,-143.1"/>
</g>
<!-- src/controllers/index.js&#45;&gt;src/controllers/get&#45;comments.js -->
<g id="edge7" class="edge">
<title>src/controllers/index.js&#45;&gt;src/controllers/get&#45;comments.js</title>
<path fill="none" stroke="#000000" stroke-width="2" stroke-opacity="0.200000" d="M158.2,-148.42C170.86,-152 186.29,-156.37 200.2,-160.3"/>
<polygon fill="#000000" fill-opacity="0.200000" stroke="#000000" stroke-width="2" stroke-opacity="0.200000" points="199.7,-162.34 206.05,-161.96 200.85,-158.3 199.7,-162.34"/>
</g>
<!-- src/use&#45;cases/index.js -->
<g id="node10" class="node">
<title>src/use&#45;cases/index.js</title>
<g id="a_node10"><a xlink:href="src/use-cases/index.js" xlink:title="index.js">
<path fill="#ffffcc" stroke="black" d="M260,-315C260,-315 218,-315 218,-315 215,-315 212,-312 212,-309 212,-309 212,-303 212,-303 212,-300 215,-297 218,-297 218,-297 260,-297 260,-297 263,-297 266,-300 266,-303 266,-303 266,-309 266,-309 266,-312 263,-315 260,-315"/>
<text text-anchor="middle" x="239" y="-303.8" font-family="Helvetica,sans-Serif" font-size="9.00">index.js</text>
</a>
</g>
</g>
<!-- src/controllers/index.js&#45;&gt;src/use&#45;cases/index.js -->
<g id="edge5" class="edge">
<title>src/controllers/index.js&#45;&gt;src/use&#45;cases/index.js</title>
<path fill="none" stroke="#000000" stroke-width="2" stroke-opacity="0.200000" d="M137.83,-150.06C146.41,-163.4 162.94,-189.12 177,-211 195.34,-239.54 216.77,-272.92 228.72,-291.54"/>
<polygon fill="#000000" fill-opacity="0.200000" stroke="#000000" stroke-width="2" stroke-opacity="0.200000" points="227.1,-292.91 232.11,-296.83 230.64,-290.64 227.1,-292.91"/>
</g>
<!-- src/controllers/not&#45;found.js -->
<g id="node11" class="node">
<title>src/controllers/not&#45;found.js</title>
<g id="a_node11"><a xlink:href="src/controllers/not-found.js" xlink:title="not&#45;found.js">
<path fill="#ffffcc" stroke="black" d="M265.5,-60C265.5,-60 212.5,-60 212.5,-60 209.5,-60 206.5,-57 206.5,-54 206.5,-54 206.5,-48 206.5,-48 206.5,-45 209.5,-42 212.5,-42 212.5,-42 265.5,-42 265.5,-42 268.5,-42 271.5,-45 271.5,-48 271.5,-48 271.5,-54 271.5,-54 271.5,-57 268.5,-60 265.5,-60"/>
<text text-anchor="middle" x="239" y="-48.8" font-family="Helvetica,sans-Serif" font-size="9.00">not&#45;found.js</text>
</a>
</g>
</g>
<!-- src/controllers/index.js&#45;&gt;src/controllers/not&#45;found.js -->
<g id="edge8" class="edge">
<title>src/controllers/index.js&#45;&gt;src/controllers/not&#45;found.js</title>
<path fill="none" stroke="#000000" stroke-width="2" stroke-opacity="0.200000" d="M137.13,-131.73C146.31,-115.98 167.04,-83.94 193,-66 195.41,-64.33 198.03,-62.84 200.74,-61.5"/>
<polygon fill="#000000" fill-opacity="0.200000" stroke="#000000" stroke-width="2" stroke-opacity="0.200000" points="201.78,-63.33 206.4,-58.97 200.07,-59.5 201.78,-63.33"/>
</g>
<!-- src/controllers/patch&#45;comment.js -->
<g id="node12" class="node">
<title>src/controllers/patch&#45;comment.js</title>
<g id="a_node12"><a xlink:href="src/controllers/patch-comment.js" xlink:title="patch&#45;comment.js">
<path fill="#ffffcc" stroke="black" d="M277.5,-90C277.5,-90 200.5,-90 200.5,-90 197.5,-90 194.5,-87 194.5,-84 194.5,-84 194.5,-78 194.5,-78 194.5,-75 197.5,-72 200.5,-72 200.5,-72 277.5,-72 277.5,-72 280.5,-72 283.5,-75 283.5,-78 283.5,-78 283.5,-84 283.5,-84 283.5,-87 280.5,-90 277.5,-90"/>
<text text-anchor="middle" x="239" y="-78.8" font-family="Helvetica,sans-Serif" font-size="9.00">patch&#45;comment.js</text>
</a>
</g>
</g>
<!-- src/controllers/index.js&#45;&gt;src/controllers/patch&#45;comment.js -->
<g id="edge9" class="edge">
<title>src/controllers/index.js&#45;&gt;src/controllers/patch&#45;comment.js</title>
<path fill="none" stroke="#000000" stroke-width="2" stroke-opacity="0.200000" d="M142.13,-131.96C153.72,-122 173.61,-106.06 193,-96 195.52,-94.69 198.17,-93.47 200.88,-92.32"/>
<polygon fill="#000000" fill-opacity="0.200000" stroke="#000000" stroke-width="2" stroke-opacity="0.200000" points="201.69,-94.26 206.49,-90.09 200.14,-90.36 201.69,-94.26"/>
</g>
<!-- src/controllers/post&#45;comment.js -->
<g id="node13" class="node">
<title>src/controllers/post&#45;comment.js</title>
<g id="a_node13"><a xlink:href="src/controllers/post-comment.js" xlink:title="post&#45;comment.js">
<path fill="#ffffcc" stroke="black" d="M274.5,-120C274.5,-120 203.5,-120 203.5,-120 200.5,-120 197.5,-117 197.5,-114 197.5,-114 197.5,-108 197.5,-108 197.5,-105 200.5,-102 203.5,-102 203.5,-102 274.5,-102 274.5,-102 277.5,-102 280.5,-105 280.5,-108 280.5,-108 280.5,-114 280.5,-114 280.5,-117 277.5,-120 274.5,-120"/>
<text text-anchor="middle" x="239" y="-108.8" font-family="Helvetica,sans-Serif" font-size="9.00">post&#45;comment.js</text>
</a>
</g>
</g>
<!-- src/controllers/index.js&#45;&gt;src/controllers/post&#45;comment.js -->
<g id="edge10" class="edge">
<title>src/controllers/index.js&#45;&gt;src/controllers/post&#45;comment.js</title>
<path fill="none" stroke="#000000" stroke-width="2" stroke-opacity="0.200000" d="M158.2,-133.58C170.86,-130 186.29,-125.63 200.2,-121.7"/>
<polygon fill="#000000" fill-opacity="0.200000" stroke="#000000" stroke-width="2" stroke-opacity="0.200000" points="200.85,-123.7 206.05,-120.04 199.7,-119.66 200.85,-123.7"/>
</g>
<!-- src/data&#45;access/index.js -->
<g id="node15" class="node">
<title>src/data&#45;access/index.js</title>
<g id="a_node15"><a xlink:href="src/data-access/index.js" xlink:title="index.js">
<path fill="#ffffcc" stroke="black" d="M374,-420C374,-420 332,-420 332,-420 329,-420 326,-417 326,-414 326,-414 326,-408 326,-408 326,-405 329,-402 332,-402 332,-402 374,-402 374,-402 377,-402 380,-405 380,-408 380,-408 380,-414 380,-414 380,-417 377,-420 374,-420"/>
<text text-anchor="middle" x="353" y="-408.8" font-family="Helvetica,sans-Serif" font-size="9.00">index.js</text>
</a>
</g>
</g>
<!-- src/use&#45;cases/index.js&#45;&gt;src/data&#45;access/index.js -->
<g id="edge19" class="edge">
<title>src/use&#45;cases/index.js&#45;&gt;src/data&#45;access/index.js</title>
<path fill="none" stroke="#000000" stroke-width="2" stroke-opacity="0.200000" d="M244.63,-315.22C253.47,-332 274.27,-367.73 301,-389 306.72,-393.55 313.52,-397.33 320.26,-400.41"/>
<polygon fill="#000000" fill-opacity="0.200000" stroke="#000000" stroke-width="2" stroke-opacity="0.200000" points="319.55,-402.38 325.89,-402.82 321.2,-398.53 319.55,-402.38"/>
</g>
<!-- src/is&#45;questionable/index.js -->
<g id="node18" class="node">
<title>src/is&#45;questionable/index.js</title>
<g id="a_node18"><a xlink:href="src/is-questionable/index.js" xlink:title="index.js">
<path fill="#ffffcc" stroke="black" d="M374,-480C374,-480 332,-480 332,-480 329,-480 326,-477 326,-474 326,-474 326,-468 326,-468 326,-465 329,-462 332,-462 332,-462 374,-462 374,-462 377,-462 380,-465 380,-468 380,-468 380,-474 380,-474 380,-477 377,-480 374,-480"/>
<text text-anchor="middle" x="353" y="-468.8" font-family="Helvetica,sans-Serif" font-size="9.00">index.js</text>
</a>
</g>
</g>
<!-- src/use&#45;cases/index.js&#45;&gt;src/is&#45;questionable/index.js -->
<g id="edge20" class="edge">
<title>src/use&#45;cases/index.js&#45;&gt;src/is&#45;questionable/index.js</title>
<path fill="none" stroke="#000000" stroke-width="2" stroke-opacity="0.200000" d="M241.45,-315C245.87,-339.68 261.38,-409.22 301,-449 306.32,-454.34 313.14,-458.47 320.05,-461.63"/>
<polygon fill="#000000" fill-opacity="0.200000" stroke="#000000" stroke-width="2" stroke-opacity="0.200000" points="319.5,-463.67 325.85,-464.06 321.13,-459.8 319.5,-463.67"/>
</g>
<!-- src/use&#45;cases/add&#45;comment.js -->
<g id="node20" class="node">
<title>src/use&#45;cases/add&#45;comment.js</title>
<g id="a_node20"><a xlink:href="src/use-cases/add-comment.js" xlink:title="add&#45;comment.js">
<path fill="#ffffcc" stroke="black" d="M388,-300C388,-300 318,-300 318,-300 315,-300 312,-297 312,-294 312,-294 312,-288 312,-288 312,-285 315,-282 318,-282 318,-282 388,-282 388,-282 391,-282 394,-285 394,-288 394,-288 394,-294 394,-294 394,-297 391,-300 388,-300"/>
<text text-anchor="middle" x="353" y="-288.8" font-family="Helvetica,sans-Serif" font-size="9.00">add&#45;comment.js</text>
</a>
</g>
</g>
<!-- src/use&#45;cases/index.js&#45;&gt;src/use&#45;cases/add&#45;comment.js -->
<g id="edge21" class="edge">
<title>src/use&#45;cases/index.js&#45;&gt;src/use&#45;cases/add&#45;comment.js</title>
<path fill="none" stroke="#000000" stroke-width="2" stroke-opacity="0.200000" d="M266.26,-302.48C278.03,-300.91 292.28,-299 305.75,-297.19"/>
<polygon fill="#000000" fill-opacity="0.200000" stroke="#000000" stroke-width="2" stroke-opacity="0.200000" points="306.2,-299.25 311.87,-296.37 305.64,-295.09 306.2,-299.25"/>
</g>
<!-- src/use&#45;cases/edit&#45;comment.js -->
<g id="node21" class="node">
<title>src/use&#45;cases/edit&#45;comment.js</title>
<g id="a_node21"><a xlink:href="src/use-cases/edit-comment.js" xlink:title="edit&#45;comment.js">
<path fill="#ffffcc" stroke="black" d="M387.5,-240C387.5,-240 318.5,-240 318.5,-240 315.5,-240 312.5,-237 312.5,-234 312.5,-234 312.5,-228 312.5,-228 312.5,-225 315.5,-222 318.5,-222 318.5,-222 387.5,-222 387.5,-222 390.5,-222 393.5,-225 393.5,-228 393.5,-228 393.5,-234 393.5,-234 393.5,-237 390.5,-240 387.5,-240"/>
<text text-anchor="middle" x="353" y="-228.8" font-family="Helvetica,sans-Serif" font-size="9.00">edit&#45;comment.js</text>
</a>
</g>
</g>
<!-- src/use&#45;cases/index.js&#45;&gt;src/use&#45;cases/edit&#45;comment.js -->
<g id="edge22" class="edge">
<title>src/use&#45;cases/index.js&#45;&gt;src/use&#45;cases/edit&#45;comment.js</title>
<path fill="none" stroke="#000000" stroke-width="2" stroke-opacity="0.200000" d="M246.84,-296.86C257.16,-283.71 277.95,-259.55 301,-246 303.19,-244.71 305.5,-243.52 307.88,-242.44"/>
<polygon fill="#000000" fill-opacity="0.200000" stroke="#000000" stroke-width="2" stroke-opacity="0.200000" points="308.82,-244.32 313.54,-240.07 307.19,-240.45 308.82,-244.32"/>
</g>
<!-- src/use&#45;cases/handle&#45;moderation.js -->
<g id="node22" class="node">
<title>src/use&#45;cases/handle&#45;moderation.js</title>
<g id="a_node22"><a xlink:href="src/use-cases/handle-moderation.js" xlink:title="handle&#45;moderation.js">
<path fill="#ffffcc" stroke="black" d="M399,-330C399,-330 307,-330 307,-330 304,-330 301,-327 301,-324 301,-324 301,-318 301,-318 301,-315 304,-312 307,-312 307,-312 399,-312 399,-312 402,-312 405,-315 405,-318 405,-318 405,-324 405,-324 405,-327 402,-330 399,-330"/>
<text text-anchor="middle" x="353" y="-318.8" font-family="Helvetica,sans-Serif" font-size="9.00">handle&#45;moderation.js</text>
</a>
</g>
</g>
<!-- src/use&#45;cases/index.js&#45;&gt;src/use&#45;cases/handle&#45;moderation.js -->
<g id="edge23" class="edge">
<title>src/use&#45;cases/index.js&#45;&gt;src/use&#45;cases/handle&#45;moderation.js</title>
<path fill="none" stroke="#000000" stroke-width="2" stroke-opacity="0.200000" d="M266.26,-309.52C274.83,-310.66 284.7,-311.99 294.63,-313.32"/>
<polygon fill="#000000" fill-opacity="0.200000" stroke="#000000" stroke-width="2" stroke-opacity="0.200000" points="294.59,-315.43 300.81,-314.14 295.15,-311.27 294.59,-315.43"/>
</g>
<!-- src/use&#45;cases/list&#45;comments.js -->
<g id="node23" class="node">
<title>src/use&#45;cases/list&#45;comments.js</title>
<g id="a_node23"><a xlink:href="src/use-cases/list-comments.js" xlink:title="list&#45;comments.js">
<path fill="#ffffcc" stroke="black" d="M388,-360C388,-360 318,-360 318,-360 315,-360 312,-357 312,-354 312,-354 312,-348 312,-348 312,-345 315,-342 318,-342 318,-342 388,-342 388,-342 391,-342 394,-345 394,-348 394,-348 394,-354 394,-354 394,-357 391,-360 388,-360"/>
<text text-anchor="middle" x="353" y="-348.8" font-family="Helvetica,sans-Serif" font-size="9.00">list&#45;comments.js</text>
</a>
</g>
</g>
<!-- src/use&#45;cases/index.js&#45;&gt;src/use&#45;cases/list&#45;comments.js -->
<g id="edge24" class="edge">
<title>src/use&#45;cases/index.js&#45;&gt;src/use&#45;cases/list&#45;comments.js</title>
<path fill="none" stroke="#000000" stroke-width="2" stroke-opacity="0.200000" d="M256.48,-315.07C268.56,-321.47 285.5,-329.96 301,-336 304.7,-337.44 308.59,-338.82 312.51,-340.12"/>
<polygon fill="#000000" fill-opacity="0.200000" stroke="#000000" stroke-width="2" stroke-opacity="0.200000" points="311.9,-342.13 318.26,-341.96 313.18,-338.13 311.9,-342.13"/>
</g>
<!-- src/use&#45;cases/remove&#45;comment.js -->
<g id="node24" class="node">
<title>src/use&#45;cases/remove&#45;comment.js</title>
<g id="a_node24"><a xlink:href="src/use-cases/remove-comment.js" xlink:title="remove&#45;comment.js">
<path fill="#ffffcc" stroke="black" d="M395.5,-270C395.5,-270 310.5,-270 310.5,-270 307.5,-270 304.5,-267 304.5,-264 304.5,-264 304.5,-258 304.5,-258 304.5,-255 307.5,-252 310.5,-252 310.5,-252 395.5,-252 395.5,-252 398.5,-252 401.5,-255 401.5,-258 401.5,-258 401.5,-264 401.5,-264 401.5,-267 398.5,-270 395.5,-270"/>
<text text-anchor="middle" x="353" y="-258.8" font-family="Helvetica,sans-Serif" font-size="9.00">remove&#45;comment.js</text>
</a>
</g>
</g>
<!-- src/use&#45;cases/index.js&#45;&gt;src/use&#45;cases/remove&#45;comment.js -->
<g id="edge25" class="edge">
<title>src/use&#45;cases/index.js&#45;&gt;src/use&#45;cases/remove&#45;comment.js</title>
<path fill="none" stroke="#000000" stroke-width="2" stroke-opacity="0.200000" d="M256.48,-296.93C268.56,-290.53 285.5,-282.04 301,-276 304.7,-274.56 308.59,-273.18 312.51,-271.88"/>
<polygon fill="#000000" fill-opacity="0.200000" stroke="#000000" stroke-width="2" stroke-opacity="0.200000" points="313.18,-273.87 318.26,-270.04 311.9,-269.87 313.18,-273.87"/>
</g>
<!-- src/data&#45;access/comments&#45;db.js -->
<g id="node14" class="node">
<title>src/data&#45;access/comments&#45;db.js</title>
<g id="a_node14"><a xlink:href="src/data-access/comments-db.js" xlink:title="comments&#45;db.js">
<path fill="#ffffcc" stroke="black" d="M500,-420C500,-420 431,-420 431,-420 428,-420 425,-417 425,-414 425,-414 425,-408 425,-408 425,-405 428,-402 431,-402 431,-402 500,-402 500,-402 503,-402 506,-405 506,-408 506,-408 506,-414 506,-414 506,-417 503,-420 500,-420"/>
<text text-anchor="middle" x="465.5" y="-408.8" font-family="Helvetica,sans-Serif" font-size="9.00">comments&#45;db.js</text>
</a>
</g>
</g>
<!-- src/data&#45;access/comments&#45;db.js&#45;&gt;src/Id/index.js -->
<g id="edge11" class="edge">
<title>src/data&#45;access/comments&#45;db.js&#45;&gt;src/Id/index.js</title>
<path fill="none" stroke="#000000" stroke-width="2" stroke-opacity="0.200000" d="M485.42,-401.89C499.87,-394.94 519.89,-385.3 535.55,-377.77"/>
<polygon fill="#000000" fill-opacity="0.200000" stroke="#000000" stroke-width="2" stroke-opacity="0.200000" points="536.61,-379.59 541.11,-375.09 534.79,-375.8 536.61,-379.59"/>
</g>
<!-- src/data&#45;access/index.js&#45;&gt;src/data&#45;access/comments&#45;db.js -->
<g id="edge12" class="edge">
<title>src/data&#45;access/index.js&#45;&gt;src/data&#45;access/comments&#45;db.js</title>
<path fill="none" stroke="#000000" stroke-width="2" stroke-opacity="0.200000" d="M380.19,-411C391.59,-411 405.31,-411 418.34,-411"/>
<polygon fill="#000000" fill-opacity="0.200000" stroke="#000000" stroke-width="2" stroke-opacity="0.200000" points="418.67,-413.1 424.67,-411 418.67,-408.9 418.67,-413.1"/>
</g>
<!-- src/express&#45;callback/index.js -->
<g id="node16" class="node">
<title>src/express&#45;callback/index.js</title>
<g id="a_node16"><a xlink:href="src/express-callback/index.js" xlink:title="index.js">
<path fill="#ffffcc" stroke="black" d="M152,-240C152,-240 110,-240 110,-240 107,-240 104,-237 104,-234 104,-234 104,-228 104,-228 104,-225 107,-222 110,-222 110,-222 152,-222 152,-222 155,-222 158,-225 158,-228 158,-228 158,-234 158,-234 158,-237 155,-240 152,-240"/>
<text text-anchor="middle" x="131" y="-228.8" font-family="Helvetica,sans-Serif" font-size="9.00">index.js</text>
</a>
</g>
</g>
<!-- src/index.js -->
<g id="node17" class="node">
<title>src/index.js</title>
<g id="a_node17"><a xlink:href="src/index.js" xlink:title="index.js">
<path fill="#ffffcc" stroke="black" d="M64,-195C64,-195 22,-195 22,-195 19,-195 16,-192 16,-189 16,-189 16,-183 16,-183 16,-180 19,-177 22,-177 22,-177 64,-177 64,-177 67,-177 70,-180 70,-183 70,-183 70,-189 70,-189 70,-192 67,-195 64,-195"/>
<text text-anchor="middle" x="43" y="-183.8" font-family="Helvetica,sans-Serif" font-size="9.00">index.js</text>
</a>
</g>
</g>
<!-- src/index.js&#45;&gt;src/controllers/index.js -->
<g id="edge13" class="edge">
<title>src/index.js&#45;&gt;src/controllers/index.js</title>
<path fill="none" stroke="#000000" stroke-width="2" stroke-opacity="0.200000" d="M61.4,-176.89C74.58,-170 92.79,-160.47 107.13,-152.96"/>
<polygon fill="#000000" fill-opacity="0.200000" stroke="#000000" stroke-width="2" stroke-opacity="0.200000" points="108.28,-154.74 112.62,-150.09 106.33,-151.01 108.28,-154.74"/>
</g>
<!-- src/index.js&#45;&gt;src/express&#45;callback/index.js -->
<g id="edge14" class="edge">
<title>src/index.js&#45;&gt;src/express&#45;callback/index.js</title>
<path fill="none" stroke="#000000" stroke-width="2" stroke-opacity="0.200000" d="M60.28,-195.1C68.03,-199.39 77.46,-204.53 86,-209 92.37,-212.34 99.31,-215.86 105.76,-219.08"/>
<polygon fill="#000000" fill-opacity="0.200000" stroke="#000000" stroke-width="2" stroke-opacity="0.200000" points="105.2,-221.15 111.51,-221.95 107.08,-217.39 105.2,-221.15"/>
</g>
<!-- src/is&#45;questionable/index.js&#45;&gt;querystring -->
<g id="edge16" class="edge">
<title>src/is&#45;questionable/index.js&#45;&gt;querystring</title>
<path fill="none" stroke="#000000" stroke-dasharray="5,2" stroke-opacity="0.200000" d="M380.07,-467.91C392.11,-465.05 405.39,-459.55 413,-449 420.25,-438.95 419.55,-238.31 421,-226 430.02,-149.12 451.78,-58.85 460.65,-23.88"/>
<polygon fill="#000000" fill-opacity="0.200000" stroke="#000000" stroke-opacity="0.200000" points="462.7,-24.34 462.15,-18.01 458.63,-23.31 462.7,-24.34"/>
</g>
<!-- src/is&#45;questionable/is&#45;questionable.js -->
<g id="node19" class="node">
<title>src/is&#45;questionable/is&#45;questionable.js</title>
<g id="a_node19"><a xlink:href="src/is-questionable/is-questionable.js" xlink:title="is&#45;questionable.js">
<path fill="#ffffcc" stroke="black" d="M504,-480C504,-480 427,-480 427,-480 424,-480 421,-477 421,-474 421,-474 421,-468 421,-468 421,-465 424,-462 427,-462 427,-462 504,-462 504,-462 507,-462 510,-465 510,-468 510,-468 510,-474 510,-474 510,-477 507,-480 504,-480"/>
<text text-anchor="middle" x="465.5" y="-468.8" font-family="Helvetica,sans-Serif" font-size="9.00">is&#45;questionable.js</text>
</a>
</g>
</g>
<!-- src/is&#45;questionable/index.js&#45;&gt;src/is&#45;questionable/is&#45;questionable.js -->
<g id="edge15" class="edge">
<title>src/is&#45;questionable/index.js&#45;&gt;src/is&#45;questionable/is&#45;questionable.js</title>
<path fill="none" stroke="#000000" stroke-width="2" stroke-opacity="0.200000" d="M380.19,-471C390.51,-471 402.73,-471 414.62,-471"/>
<polygon fill="#000000" fill-opacity="0.200000" stroke="#000000" stroke-width="2" stroke-opacity="0.200000" points="414.79,-473.1 420.79,-471 414.79,-468.9 414.79,-473.1"/>
</g>
<!-- src/use&#45;cases/add&#45;comment.js&#45;&gt;src/comment/index.js -->
<g id="edge17" class="edge">
<title>src/use&#45;cases/add&#45;comment.js&#45;&gt;src/comment/index.js</title>
<path fill="none" stroke="#000000" stroke-width="2" stroke-opacity="0.200000" d="M390.25,-281.99C397.78,-280.06 405.66,-278 413,-276 419.33,-274.27 426.07,-272.36 432.53,-270.5"/>
<polygon fill="#000000" fill-opacity="0.200000" stroke="#000000" stroke-width="2" stroke-opacity="0.200000" points="433.17,-272.5 438.35,-268.81 432,-268.46 433.17,-272.5"/>
</g>
<!-- src/use&#45;cases/edit&#45;comment.js&#45;&gt;src/comment/index.js -->
<g id="edge18" class="edge">
<title>src/use&#45;cases/edit&#45;comment.js&#45;&gt;src/comment/index.js</title>
<path fill="none" stroke="#000000" stroke-width="2" stroke-opacity="0.200000" d="M390.25,-240.01C397.78,-241.94 405.66,-244 413,-246 419.33,-247.73 426.07,-249.64 432.53,-251.5"/>
<polygon fill="#000000" fill-opacity="0.200000" stroke="#000000" stroke-width="2" stroke-opacity="0.200000" points="432,-253.54 438.35,-253.19 433.17,-249.5 432,-253.54"/>
</g>
<!-- src/use&#45;cases/remove&#45;comment.js&#45;&gt;src/comment/index.js -->
<g id="edge26" class="edge">
<title>src/use&#45;cases/remove&#45;comment.js&#45;&gt;src/comment/index.js</title>
<path fill="none" stroke="#000000" stroke-width="2" stroke-opacity="0.200000" d="M401.5,-261C411.87,-261 422.6,-261 432.21,-261"/>
<polygon fill="#000000" fill-opacity="0.200000" stroke="#000000" stroke-width="2" stroke-opacity="0.200000" points="432.35,-263.1 438.35,-261 432.35,-258.9 432.35,-263.1"/>
</g>
</g>
</svg>
